<svg width="98" height="98" viewBox="0 0 98 98" fill="none" xmlns="http://www.w3.org/2000/svg">
<circle cx="49.2358" cy="49.2287" r="46.8398" fill="#19173D" stroke="url(#paint0_linear_116_303)" stroke-width="3"/>
<path fill-rule="evenodd" clip-rule="evenodd" d="M49.2387 53.7646L33.9957 38.6294C32.8668 37.5072 31.0434 37.5072 29.9145 38.6294C29.375 39.1638 29.0713 39.8917 29.0713 40.6511C29.0713 41.4105 29.375 42.1384 29.9145 42.6728L47.1951 59.8281C48.324 60.9502 50.1474 60.9502 51.2763 59.8281L68.557 42.6727C69.0964 42.1384 69.4001 41.4105 69.4001 40.6511C69.4001 39.8917 69.0964 39.1638 68.557 38.6295C67.4279 37.5074 65.6047 37.5074 64.4758 38.6294L49.2387 53.7646Z" fill="url(#paint1_linear_116_303)"/>
<defs>
<linearGradient id="paint0_linear_116_303" x1="52.8966" y1="0.888916" x2="51.1784" y2="97.5755" gradientUnits="userSpaceOnUse">
<stop stop-color="#61159D"/>
<stop offset="0.657344" stop-color="#9C106C"/>
</linearGradient>
<linearGradient id="paint1_linear_116_303" x1="50.7628" y1="37.7878" x2="50.532" y2="60.6762" gradientUnits="userSpaceOnUse">
<stop stop-color="#61159D"/>
<stop offset="0.657344" stop-color="#9C106C"/>
</linearGradient>
</defs>
</svg>
