<svg width="172" height="65" viewBox="0 0 172 65" fill="none" xmlns="http://www.w3.org/2000/svg">
<g filter="url(#filter0_f_111_352)">
<path d="M10.4226 25.8967C10.4226 17.6125 17.1383 10.8967 25.4226 10.8967H146.072C154.356 10.8967 161.072 17.6125 161.072 25.8967V39.8967C161.072 48.181 154.356 54.8967 146.072 54.8967H25.4226C17.1383 54.8967 10.4226 48.181 10.4226 39.8967V25.8967Z" fill="url(#paint0_linear_111_352)"/>
<path d="M25.4226 11.3967H146.072C154.08 11.3967 160.572 17.8886 160.572 25.8967V39.8967C160.572 47.9049 154.08 54.3967 146.072 54.3967H25.4226C17.4145 54.3967 10.9226 47.9049 10.9226 39.8967V25.8967C10.9226 17.8886 17.4145 11.3967 25.4226 11.3967Z" stroke="white" stroke-opacity="0.5" style="mix-blend-mode:overlay"/>
</g>
<path d="M10.4226 25.8967C10.4226 17.6125 17.1383 10.8967 25.4226 10.8967H146.072C154.356 10.8967 161.072 17.6125 161.072 25.8967V39.8967C161.072 48.181 154.356 54.8967 146.072 54.8967H25.4226C17.1383 54.8967 10.4226 48.181 10.4226 39.8967V25.8967Z" fill="url(#paint1_linear_111_352)"/>
<path d="M25.4226 11.3967H146.072C154.08 11.3967 160.572 17.8886 160.572 25.8967V39.8967C160.572 47.9049 154.08 54.3967 146.072 54.3967H25.4226C17.4145 54.3967 10.9226 47.9049 10.9226 39.8967V25.8967C10.9226 17.8886 17.4145 11.3967 25.4226 11.3967Z" stroke="white" stroke-opacity="0.5" style="mix-blend-mode:overlay"/>
<defs>
<filter id="filter0_f_111_352" x="0.422607" y="0.896729" width="170.649" height="64" filterUnits="userSpaceOnUse" color-interpolation-filters="sRGB">
<feFlood flood-opacity="0" result="BackgroundImageFix"/>
<feBlend mode="normal" in="SourceGraphic" in2="BackgroundImageFix" result="shape"/>
<feGaussianBlur stdDeviation="5" result="effect1_foregroundBlur_111_352"/>
</filter>
<linearGradient id="paint0_linear_111_352" x1="91.4515" y1="10.8967" x2="91.223" y2="54.9126" gradientUnits="userSpaceOnUse">
<stop stop-color="#61159D"/>
<stop offset="0.657344" stop-color="#9C106C"/>
</linearGradient>
<linearGradient id="paint1_linear_111_352" x1="57.1162" y1="-34.0424" x2="120.87" y2="135.097" gradientUnits="userSpaceOnUse">
<stop stop-color="#61159D"/>
<stop offset="0.657344" stop-color="#9C106C"/>
</linearGradient>
</defs>
</svg>
