<svg width="172" height="65" viewBox="0 0 172 65" fill="none" xmlns="http://www.w3.org/2000/svg">
<g filter="url(#filter0_f_111_352)">
<path d="M10.4226 25.8967C10.4226 17.6125 17.1383 10.8967 25.4226 10.8967H146.072C154.356 10.8967 161.072 17.6125 161.072 25.8967V39.8967C161.072 48.181 154.356 54.8967 146.072 54.8967H25.4226C17.1383 54.8967 10.4226 48.181 10.4226 39.8967V25.8967Z" fill="url(#paint0_linear_111_352)"/>
<path d="M10.9226 25.8967C10.9226 17.8886 17.4145 11.3967 25.4226 11.3967H146.072C154.08 11.3967 160.572 17.8886 160.572 25.8967V39.8967C160.572 47.9049 154.08 54.3967 146.072 54.3967H25.4226C17.4145 54.3967 10.9226 47.9049 10.9226 39.8967V25.8967Z" stroke="white" stroke-opacity="0.5" style="mix-blend-mode:overlay"/>
</g>
<path d="M10.4226 25.8967C10.4226 17.6125 17.1383 10.8967 25.4226 10.8967H146.072C154.356 10.8967 161.072 17.6125 161.072 25.8967V39.8967C161.072 48.181 154.356 54.8967 146.072 54.8967H25.4226C17.1383 54.8967 10.4226 48.181 10.4226 39.8967V25.8967Z" fill="url(#paint1_linear_111_352)"/>
<path d="M10.9226 25.8967C10.9226 17.8886 17.4145 11.3967 25.4226 11.3967H146.072C154.08 11.3967 160.572 17.8886 160.572 25.8967V39.8967C160.572 47.9049 154.08 54.3967 146.072 54.3967H25.4226C17.4145 54.3967 10.9226 47.9049 10.9226 39.8967V25.8967Z" stroke="white" stroke-opacity="0.5" style="mix-blend-mode:overlay"/>
<path d="M35.4071 32.8567C35.4071 31.4701 35.7071 30.2367 36.3071 29.1567C36.9071 28.0634 37.7404 27.2167 38.8071 26.6167C39.8871 26.0034 41.1071 25.6967 42.4671 25.6967C44.1337 25.6967 45.5604 26.1367 46.7471 27.0167C47.9337 27.8967 48.7271 29.0967 49.1271 30.6167H45.3671C45.0871 30.0301 44.6871 29.5834 44.1671 29.2767C43.6604 28.9701 43.0804 28.8167 42.4271 28.8167C41.3737 28.8167 40.5204 29.1834 39.8671 29.9167C39.2137 30.6501 38.8871 31.6301 38.8871 32.8567C38.8871 34.0834 39.2137 35.0634 39.8671 35.7967C40.5204 36.5301 41.3737 36.8967 42.4271 36.8967C43.0804 36.8967 43.6604 36.7434 44.1671 36.4367C44.6871 36.1301 45.0871 35.6834 45.3671 35.0967H49.1271C48.7271 36.6167 47.9337 37.8167 46.7471 38.6967C45.5604 39.5634 44.1337 39.9967 42.4671 39.9967C41.1071 39.9967 39.8871 39.6967 38.8071 39.0967C37.7404 38.4834 36.9071 37.6367 36.3071 36.5567C35.7071 35.4767 35.4071 34.2434 35.4071 32.8567ZM54.3414 25.0967V39.8967H50.9214V25.0967H54.3414ZM55.8399 34.2967C55.8399 33.1501 56.0532 32.1434 56.4799 31.2767C56.9199 30.4101 57.5132 29.7434 58.2599 29.2767C59.0065 28.8101 59.8399 28.5767 60.7599 28.5767C61.5465 28.5767 62.2332 28.7367 62.8199 29.0567C63.4199 29.3767 63.8799 29.7967 64.1999 30.3167V28.7367H67.6199V39.8967H64.1999V38.3167C63.8665 38.8367 63.3999 39.2567 62.7999 39.5767C62.2132 39.8967 61.5265 40.0567 60.7399 40.0567C59.8332 40.0567 59.0065 39.8234 58.2599 39.3567C57.5132 38.8767 56.9199 38.2034 56.4799 37.3367C56.0532 36.4567 55.8399 35.4434 55.8399 34.2967ZM64.1999 34.3167C64.1999 33.4634 63.9599 32.7901 63.4799 32.2967C63.0132 31.8034 62.4399 31.5567 61.7599 31.5567C61.0799 31.5567 60.4999 31.8034 60.0199 32.2967C59.5532 32.7767 59.3199 33.4434 59.3199 34.2967C59.3199 35.1501 59.5532 35.8301 60.0199 36.3367C60.4999 36.8301 61.0799 37.0767 61.7599 37.0767C62.4399 37.0767 63.0132 36.8301 63.4799 36.3367C63.9599 35.8434 64.1999 35.1701 64.1999 34.3167ZM71.5141 27.5767C70.9141 27.5767 70.4208 27.4034 70.0341 27.0567C69.6608 26.6967 69.4741 26.2567 69.4741 25.7367C69.4741 25.2034 69.6608 24.7634 70.0341 24.4167C70.4208 24.0567 70.9141 23.8767 71.5141 23.8767C72.1008 23.8767 72.5808 24.0567 72.9541 24.4167C73.3408 24.7634 73.5341 25.2034 73.5341 25.7367C73.5341 26.2567 73.3408 26.6967 72.9541 27.0567C72.5808 27.4034 72.1008 27.5767 71.5141 27.5767ZM73.2141 28.7367V39.8967H69.7941V28.7367H73.2141ZM89.6325 28.6167C91.0192 28.6167 92.1192 29.0367 92.9325 29.8767C93.7592 30.7167 94.1725 31.8834 94.1725 33.3767V39.8967H90.7725V33.8367C90.7725 33.1167 90.5792 32.5634 90.1925 32.1767C89.8192 31.7767 89.2992 31.5767 88.6325 31.5767C87.9659 31.5767 87.4392 31.7767 87.0525 32.1767C86.6792 32.5634 86.4925 33.1167 86.4925 33.8367V39.8967H83.0925V33.8367C83.0925 33.1167 82.8992 32.5634 82.5125 32.1767C82.1392 31.7767 81.6192 31.5767 80.9525 31.5767C80.2859 31.5767 79.7592 31.7767 79.3725 32.1767C78.9992 32.5634 78.8125 33.1167 78.8125 33.8367V39.8967H75.3925V28.7367H78.8125V30.1367C79.1592 29.6701 79.6125 29.3034 80.1725 29.0367C80.7325 28.7567 81.3659 28.6167 82.0725 28.6167C82.9125 28.6167 83.6592 28.7967 84.3125 29.1567C84.9792 29.5167 85.4992 30.0301 85.8725 30.6967C86.2592 30.0834 86.7859 29.5834 87.4525 29.1967C88.1192 28.8101 88.8459 28.6167 89.6325 28.6167ZM112.763 39.8967H109.343L103.623 31.2367V39.8967H100.203V25.8567H103.623L109.343 34.5567V25.8567H112.763V39.8967ZM124.082 25.8567V28.5967H118.362V31.5567H122.642V34.2167H118.362V39.8967H114.942V25.8567H124.082ZM135.679 25.8567V28.5967H131.959V39.8967H128.539V28.5967H124.819V25.8567H135.679Z" fill="white"/>
<defs>
<filter id="filter0_f_111_352" x="0.422607" y="0.896729" width="170.649" height="64" filterUnits="userSpaceOnUse" color-interpolation-filters="sRGB">
<feFlood flood-opacity="0" result="BackgroundImageFix"/>
<feBlend mode="normal" in="SourceGraphic" in2="BackgroundImageFix" result="shape"/>
<feGaussianBlur stdDeviation="5" result="effect1_foregroundBlur_111_352"/>
</filter>
<linearGradient id="paint0_linear_111_352" x1="91.4515" y1="10.8967" x2="91.223" y2="54.9126" gradientUnits="userSpaceOnUse">
<stop stop-color="#61159D"/>
<stop offset="0.657344" stop-color="#9C106C"/>
</linearGradient>
<linearGradient id="paint1_linear_111_352" x1="57.1162" y1="-34.0424" x2="120.87" y2="135.097" gradientUnits="userSpaceOnUse">
<stop stop-color="#61159D"/>
<stop offset="0.657344" stop-color="#9C106C"/>
</linearGradient>
</defs>
</svg>
