<svg width="40" height="41" viewBox="0 0 40 41" fill="none" xmlns="http://www.w3.org/2000/svg">
<circle cx="20.0157" cy="20.3321" r="19.7186" fill="white"/>
<path fill-rule="evenodd" clip-rule="evenodd" d="M21.3074 26.7908C21.1356 26.6197 21.039 26.3872 21.039 26.1448C21.039 25.9023 21.1356 25.6699 21.3074 25.4987L25.5527 21.2534H12.2814C11.9557 21.2535 11.6547 21.0796 11.4918 20.7975C11.3289 20.5154 11.3289 20.1678 11.4918 19.8857C11.6547 19.6036 11.9557 19.4297 12.2814 19.4297H25.5528L21.3074 15.1844C20.9507 14.8277 20.9507 14.2492 21.3073 13.8924C21.664 13.5356 22.2424 13.5355 22.5993 13.8921L28.3862 19.6789C28.4363 19.7266 28.4809 19.7799 28.5191 19.8377H28.519L28.5301 19.8552V19.8552L28.5403 19.8709V19.8709L28.5495 19.8866V19.8866L28.5587 19.9032V19.9032L28.568 19.9208V19.9208C28.7445 20.2786 28.6679 20.7098 28.3787 20.9848L22.5922 26.7715C22.4209 26.943 22.1885 27.0395 21.9461 27.0395C21.7037 27.0395 21.4713 26.943 21.3001 26.7715L21.3074 26.7908Z" fill="url(#paint0_linear_111_296)"/>
<defs>
<linearGradient id="paint0_linear_111_296" x1="20.6706" y1="13.6248" x2="20.4857" y2="27.0421" gradientUnits="userSpaceOnUse">
<stop stop-color="#61159D"/>
<stop offset="0.657344" stop-color="#9C106C"/>
</linearGradient>
</defs>
</svg>
