<svg width="32" height="33" viewBox="0 0 32 33" fill="none" xmlns="http://www.w3.org/2000/svg">
<circle cx="15.9355" cy="16.5275" r="15.6093" fill="white"/>
<path d="M9.97555 11.4982V8.31821H15.5155V22.9182H11.9555V11.4982H9.97555ZM19.4951 23.0782C18.8951 23.0782 18.4017 22.9049 18.0151 22.5582C17.6417 22.1982 17.4551 21.7582 17.4551 21.2382C17.4551 20.7049 17.6417 20.2582 18.0151 19.8982C18.4017 19.5382 18.8951 19.3582 19.4951 19.3582C20.0817 19.3582 20.5617 19.5382 20.9351 19.8982C21.3217 20.2582 21.5151 20.7049 21.5151 21.2382C21.5151 21.7582 21.3217 22.1982 20.9351 22.5582C20.5617 22.9049 20.0817 23.0782 19.4951 23.0782Z" fill="url(#paint0_linear_111_315)"/>
<defs>
<linearGradient id="paint0_linear_111_315" x1="16.4278" y1="0.918213" x2="15.1991" y2="30.8795" gradientUnits="userSpaceOnUse">
<stop stop-color="#61159D"/>
<stop offset="0.657344" stop-color="#9C106C"/>
</linearGradient>
</defs>
</svg>
