<svg width="32" height="33" viewBox="0 0 32 33" fill="none" xmlns="http://www.w3.org/2000/svg">
<circle cx="15.9355" cy="16.5275" r="15.6093" fill="white"/>
<path d="M8.21555 20.1782C8.66888 19.8182 8.87555 19.6515 8.83555 19.6782C10.1422 18.5982 11.1689 17.7115 11.9155 17.0182C12.6755 16.3249 13.3155 15.5982 13.8355 14.8382C14.3555 14.0782 14.6155 13.3382 14.6155 12.6182C14.6155 12.0715 14.4889 11.6449 14.2355 11.3382C13.9822 11.0315 13.6022 10.8782 13.0955 10.8782C12.5889 10.8782 12.1889 11.0715 11.8955 11.4582C11.6155 11.8315 11.4755 12.3649 11.4755 13.0582H8.17555C8.20221 11.9249 8.44221 10.9782 8.89555 10.2182C9.36221 9.45821 9.96888 8.89821 10.7155 8.53821C11.4755 8.17821 12.3155 7.99821 13.2355 7.99821C14.8222 7.99821 16.0155 8.40488 16.8155 9.21821C17.6289 10.0315 18.0355 11.0915 18.0355 12.3982C18.0355 13.8249 17.5489 15.1515 16.5755 16.3782C15.6022 17.5915 14.3622 18.7782 12.8555 19.9382H18.2555V22.7182H8.21555V20.1782ZM21.4013 23.0782C20.8013 23.0782 20.308 22.9049 19.9213 22.5582C19.548 22.1982 19.3613 21.7582 19.3613 21.2382C19.3613 20.7049 19.548 20.2582 19.9213 19.8982C20.308 19.5382 20.8013 19.3582 21.4013 19.3582C21.988 19.3582 22.468 19.5382 22.8413 19.8982C23.228 20.2582 23.4213 20.7049 23.4213 21.2382C23.4213 21.7582 23.228 22.1982 22.8413 22.5582C22.468 22.9049 21.988 23.0782 21.4013 23.0782Z" fill="url(#paint0_linear_111_315)"/>
<defs>
<linearGradient id="paint0_linear_111_315" x1="16.5792" y1="0.918213" x2="15.639" y2="30.9004" gradientUnits="userSpaceOnUse">
<stop stop-color="#61159D"/>
<stop offset="0.657344" stop-color="#9C106C"/>
</linearGradient>
</defs>
</svg>
