<svg width="32" height="32" viewBox="0 0 32 32" fill="none" xmlns="http://www.w3.org/2000/svg">
<circle cx="15.9355" cy="15.7787" r="15.6093" fill="white"/>
<path d="M8.45555 11.6896C8.50888 10.2629 8.97555 9.16289 9.85555 8.38956C10.7355 7.61622 11.9289 7.22955 13.4355 7.22955C14.4355 7.22955 15.2889 7.40289 15.9955 7.74956C16.7155 8.09622 17.2555 8.56955 17.6155 9.16955C17.9889 9.76956 18.1755 10.4429 18.1755 11.1896C18.1755 12.0696 17.9555 12.7896 17.5155 13.3496C17.0755 13.8962 16.5622 14.2696 15.9755 14.4696V14.5496C16.7355 14.8029 17.3355 15.2229 17.7755 15.8096C18.2155 16.3962 18.4355 17.1496 18.4355 18.0696C18.4355 18.8962 18.2422 19.6296 17.8555 20.2696C17.4822 20.8962 16.9289 21.3896 16.1955 21.7496C15.4755 22.1096 14.6155 22.2896 13.6155 22.2896C12.0155 22.2896 10.7355 21.8962 9.77555 21.1096C8.82888 20.3229 8.32888 19.1362 8.27555 17.5496H11.5955C11.6089 18.1362 11.7755 18.6029 12.0955 18.9496C12.4155 19.2829 12.8822 19.4496 13.4955 19.4496C14.0155 19.4496 14.4155 19.3029 14.6955 19.0096C14.9889 18.7029 15.1355 18.3029 15.1355 17.8096C15.1355 17.1696 14.9289 16.7096 14.5155 16.4296C14.1155 16.1362 13.4689 15.9896 12.5755 15.9896H11.9355V13.2096H12.5755C13.2555 13.2096 13.8022 13.0962 14.2155 12.8696C14.6422 12.6296 14.8555 12.2096 14.8555 11.6096C14.8555 11.1296 14.7222 10.7562 14.4555 10.4896C14.1889 10.2229 13.8222 10.0896 13.3555 10.0896C12.8489 10.0896 12.4689 10.2429 12.2155 10.5496C11.9755 10.8562 11.8355 11.2362 11.7955 11.6896H8.45555ZM22.0849 22.3296C21.4849 22.3296 20.9916 22.1562 20.6049 21.8096C20.2316 21.4496 20.0449 21.0096 20.0449 20.4896C20.0449 19.9562 20.2316 19.5096 20.6049 19.1496C20.9916 18.7896 21.4849 18.6096 22.0849 18.6096C22.6716 18.6096 23.1516 18.7896 23.5249 19.1496C23.9116 19.5096 24.1049 19.9562 24.1049 20.4896C24.1049 21.0096 23.9116 21.4496 23.5249 21.8096C23.1516 22.1562 22.6716 22.3296 22.0849 22.3296Z" fill="url(#paint0_linear_111_333)"/>
<defs>
<linearGradient id="paint0_linear_111_333" x1="17.1171" y1="0.169556" x2="16.229" y2="30.1549" gradientUnits="userSpaceOnUse">
<stop stop-color="#61159D"/>
<stop offset="0.657344" stop-color="#9C106C"/>
</linearGradient>
</defs>
</svg>
