<svg width="132" height="159" viewBox="0 0 132 159" fill="none" xmlns="http://www.w3.org/2000/svg">
<path d="M0.462646 33.4708C0.462646 15.1255 15.3344 0.253723 33.6797 0.253723H98.2157C116.561 0.253723 131.433 15.1255 131.433 33.4708V125.656C131.433 144.001 116.561 158.873 98.2157 158.873H33.6797C15.3344 158.873 0.462646 144.001 0.462646 125.656V33.4708Z" fill="#7B78AA"/>
<path d="M33.6797 1.25024H98.2157C116.011 1.25024 130.436 15.6759 130.436 33.4708V125.656C130.436 143.451 116.011 157.877 98.2157 157.877H33.6797C15.8848 157.877 1.45916 143.451 1.45916 125.656V33.4708C1.45916 15.6758 15.8848 1.25024 33.6797 1.25024Z" stroke="url(#paint0_linear_139_311)" stroke-opacity="0.2" stroke-width="1.99302"/>
<defs>
<linearGradient id="paint0_linear_139_311" x1="37.6956" y1="0.253723" x2="124.434" y2="3.96416" gradientUnits="userSpaceOnUse">
<stop stop-color="white"/>
<stop offset="1" stop-color="white" stop-opacity="0"/>
</linearGradient>
</defs>
</svg>
