<svg width="67" height="160" viewBox="0 0 67 160" fill="none" xmlns="http://www.w3.org/2000/svg">
<path d="M0.0596924 34.0902C0.0596924 15.7449 14.9315 0.873138 33.2768 0.873138H97.8128C116.158 0.873138 131.03 15.7449 131.03 34.0902V126.276C131.03 144.621 116.158 159.493 97.8128 159.493H33.2768C14.9315 159.493 0.0596924 144.621 0.0596924 126.275V34.0902Z" fill="#7B78AA"/>
<path d="M33.2768 1.86965H97.8128C115.608 1.86965 130.033 16.2953 130.033 34.0902V126.276C130.033 144.07 115.608 158.496 97.8128 158.496H33.2768C15.4818 158.496 1.0562 144.07 1.0562 126.275V34.0902C1.0562 16.2952 15.4818 1.86965 33.2768 1.86965Z" stroke="url(#paint0_linear_139_329)" stroke-opacity="0.2" stroke-width="1.99302"/>
<defs>
<linearGradient id="paint0_linear_139_329" x1="37.2926" y1="0.873138" x2="124.031" y2="4.58357" gradientUnits="userSpaceOnUse">
<stop stop-color="white"/>
<stop offset="1" stop-color="white" stop-opacity="0"/>
</linearGradient>
</defs>
</svg>
