<svg width="132" height="159" viewBox="0 0 132 159" fill="none" xmlns="http://www.w3.org/2000/svg">
<path d="M0.26123 33.4708C0.26123 15.1255 15.133 0.253723 33.4783 0.253723H98.0143C116.36 0.253723 131.231 15.1255 131.231 33.4708V125.656C131.231 144.001 116.36 158.873 98.0143 158.873H33.4783C15.133 158.873 0.26123 144.001 0.26123 125.656V33.4708Z" fill="#7B78AA"/>
<path d="M33.4783 1.25024H98.0143C115.809 1.25024 130.235 15.6759 130.235 33.4708V125.656C130.235 143.451 115.809 157.877 98.0143 157.877H33.4783C15.6834 157.877 1.25774 143.451 1.25774 125.656V33.4708C1.25774 15.6758 15.6834 1.25024 33.4783 1.25024Z" stroke="url(#paint0_linear_139_317)" stroke-opacity="0.2" stroke-width="1.99302"/>
<defs>
<linearGradient id="paint0_linear_139_317" x1="37.4942" y1="0.253723" x2="124.232" y2="3.96416" gradientUnits="userSpaceOnUse">
<stop stop-color="white"/>
<stop offset="1" stop-color="white" stop-opacity="0"/>
</linearGradient>
</defs>
</svg>
