<svg width="132" height="160" viewBox="0 0 132 160" fill="none" xmlns="http://www.w3.org/2000/svg">
<path d="M0.462646 34.0902C0.462646 15.7449 15.3344 0.873138 33.6797 0.873138H98.2157C116.561 0.873138 131.433 15.7449 131.433 34.0902V126.276C131.433 144.621 116.561 159.493 98.2157 159.493H33.6797C15.3344 159.493 0.462646 144.621 0.462646 126.275V34.0902Z" fill="#7B78AA"/>
<path d="M33.6797 1.86965H98.2157C116.011 1.86965 130.436 16.2953 130.436 34.0902V126.276C130.436 144.07 116.011 158.496 98.2157 158.496H33.6797C15.8848 158.496 1.45916 144.07 1.45916 126.275V34.0902C1.45916 16.2952 15.8848 1.86965 33.6797 1.86965Z" stroke="url(#paint0_linear_139_305)" stroke-opacity="0.2" stroke-width="1.99302"/>
<defs>
<linearGradient id="paint0_linear_139_305" x1="37.6956" y1="0.873138" x2="124.434" y2="4.58357" gradientUnits="userSpaceOnUse">
<stop stop-color="white"/>
<stop offset="1" stop-color="white" stop-opacity="0"/>
</linearGradient>
</defs>
</svg>
