<svg width="132" height="160" viewBox="0 0 132 160" fill="none" xmlns="http://www.w3.org/2000/svg">
<path d="M0.26123 34.0902C0.26123 15.7449 15.133 0.873138 33.4783 0.873138H98.0143C116.36 0.873138 131.231 15.7449 131.231 34.0902V126.276C131.231 144.621 116.36 159.493 98.0143 159.493H33.4783C15.133 159.493 0.26123 144.621 0.26123 126.275V34.0902Z" fill="#7B78AA"/>
<path d="M33.4783 1.86965H98.0143C115.809 1.86965 130.235 16.2953 130.235 34.0902V126.276C130.235 144.07 115.809 158.496 98.0143 158.496H33.4783C15.6834 158.496 1.25774 144.07 1.25774 126.275V34.0902C1.25774 16.2952 15.6834 1.86965 33.4783 1.86965Z" stroke="url(#paint0_linear_139_323)" stroke-opacity="0.2" stroke-width="1.99302"/>
<defs>
<linearGradient id="paint0_linear_139_323" x1="37.4942" y1="0.873138" x2="124.232" y2="4.58357" gradientUnits="userSpaceOnUse">
<stop stop-color="white"/>
<stop offset="1" stop-color="white" stop-opacity="0"/>
</linearGradient>
</defs>
</svg>
