<svg width="62" height="159" viewBox="0 0 62 159" fill="none" xmlns="http://www.w3.org/2000/svg">
<path d="M0.462646 33.217C0.462646 14.8717 15.3344 0 33.6797 0H98.2157C116.561 0 131.433 14.8718 131.433 33.2171V125.402C131.433 143.748 116.561 158.619 98.2157 158.619H33.6797C15.3344 158.619 0.462646 143.748 0.462646 125.402V33.217Z" fill="#7B78AA"/>
<path d="M33.6797 0.996512H98.2157C116.011 0.996512 130.436 15.4221 130.436 33.2171V125.402C130.436 143.197 116.011 157.623 98.2157 157.623H33.6797C15.8848 157.623 1.45916 143.197 1.45916 125.402V33.217C1.45916 15.4221 15.8848 0.996512 33.6797 0.996512Z" stroke="url(#paint0_linear_139_344)" stroke-opacity="0.2" stroke-width="1.99302"/>
<defs>
<linearGradient id="paint0_linear_139_344" x1="37.6956" y1="-5.93226e-07" x2="124.434" y2="3.71044" gradientUnits="userSpaceOnUse">
<stop stop-color="white"/>
<stop offset="1" stop-color="white" stop-opacity="0"/>
</linearGradient>
</defs>
</svg>
