<svg width="59" height="59" viewBox="0 0 59 59" fill="none" xmlns="http://www.w3.org/2000/svg">
<circle cx="29.5682" cy="29.3219" r="28.695" fill="white" fill-opacity="0.75"/>
<path fill-rule="evenodd" clip-rule="evenodd" d="M30.9011 37.7863C30.6759 37.562 30.5494 37.2574 30.5494 36.9396C30.5494 36.6219 30.6759 36.3173 30.9011 36.093L36.4648 30.5293H19.0722C18.6452 30.5294 18.2507 30.3016 18.0372 29.9318C17.8238 29.5621 17.8238 29.1066 18.0372 28.7368C18.2507 28.3671 18.6452 28.1393 19.0722 28.1393H36.4648L30.9011 22.5756C30.4336 22.1081 30.4336 21.35 30.901 20.8824C31.3684 20.4148 32.1264 20.4146 32.5942 20.882L40.1781 28.4659C40.2439 28.5284 40.3023 28.5982 40.3523 28.6739H40.3522L40.3668 28.6969V28.6969L40.3801 28.7175V28.7175L40.3922 28.7381V28.7381L40.4043 28.7598V28.7598L40.4164 28.7828V28.7828C40.6478 29.2518 40.5473 29.8168 40.1683 30.1773L32.5848 37.761C32.3604 37.9858 32.0558 38.1122 31.7381 38.1122C31.4205 38.1122 31.1159 37.9858 30.8915 37.761L30.9011 37.7863Z" fill="url(#paint0_linear_139_334)"/>
<defs>
<linearGradient id="paint0_linear_139_334" x1="30.0666" y1="20.5316" x2="29.8242" y2="38.1157" gradientUnits="userSpaceOnUse">
<stop stop-color="#61159D"/>
<stop offset="0.657344" stop-color="#9C106C"/>
</linearGradient>
</defs>
</svg>
