<svg width="58" height="58" viewBox="0 0 58 58" fill="none" xmlns="http://www.w3.org/2000/svg">
<circle cx="28.695" cy="29.1727" r="28.695" fill="white" fill-opacity="0.75"/>
<path fill-rule="evenodd" clip-rule="evenodd" d="M30.0278 37.6371C29.8026 37.4128 29.6761 37.1081 29.6761 36.7904C29.6761 36.4727 29.8026 36.168 30.0278 35.9438L35.5915 30.3801H18.1989C17.772 30.3801 17.3774 30.1523 17.164 29.7826C16.9505 29.4128 16.9505 28.9574 17.164 28.5876C17.3774 28.2179 17.772 27.9901 18.1989 27.9901H35.5915L30.0279 22.4264C29.5603 21.9589 29.5603 21.2008 30.0277 20.7332C30.4951 20.2656 31.2532 20.2654 31.7209 20.7327L39.3048 28.3167C39.3706 28.3792 39.429 28.4489 39.479 28.5247H39.479L39.4935 28.5476V28.5476L39.5068 28.5682V28.5682L39.5189 28.5888V28.5888L39.531 28.6106V28.6106L39.5431 28.6336V28.6336C39.7745 29.1026 39.674 29.6676 39.2951 30.0281L31.7115 37.6118C31.4871 37.8366 31.1825 37.9629 30.8649 37.9629C30.5472 37.9629 30.2426 37.8366 30.0182 37.6118L30.0278 37.6371Z" fill="url(#paint0_linear_139_349)"/>
<defs>
<linearGradient id="paint0_linear_139_349" x1="29.1933" y1="20.3824" x2="28.9509" y2="37.9664" gradientUnits="userSpaceOnUse">
<stop stop-color="#61159D"/>
<stop offset="0.657344" stop-color="#9C106C"/>
</linearGradient>
</defs>
</svg>
