<svg width="98" height="97" viewBox="0 0 98 97" fill="none" xmlns="http://www.w3.org/2000/svg">
<circle cx="48.7033" cy="48.5784" r="46.8398" fill="#19173D" stroke="url(#paint0_linear_107_381)" stroke-width="3"/>
<path d="M32.9419 76.7432C37.5257 65.5479 40.5168 60.0237 46.8022 50.4264L63.5006 39.8807L58.5883 47.001C47.3815 64.2755 46.1168 68.8253 41.062 81.271C40.7832 81.9372 40.733 82.1211 39.8616 81.7337L33.2293 78.1124C32.6472 77.8295 32.6679 77.337 32.9419 76.7432Z" fill="url(#paint1_linear_107_381)"/>
<path d="M61.8425 22.1217C62.0123 22.8746 62.0038 23.6568 61.8173 24.4058C61.6308 25.1548 61.2716 25.85 60.7685 26.4353L52.9145 36.1731L57.0081 33.887C61.9528 31.9619 67.1392 37.661 61.7462 41.905C61.6055 42.0157 61.4576 42.1254 61.3024 42.234L36.1218 56.4824C30.9474 58.6889 27.5456 53.2376 30.0366 49.3848L43.24 32.9075C39.2917 33.878 36.8903 34.244 32.8624 34.7984C32.6295 34.8471 32.3866 34.8048 32.1837 34.6804C31.9808 34.556 31.8331 34.359 31.7708 34.1293L30.0102 26.7698C29.9571 26.548 29.9939 26.3143 30.1127 26.1196C30.2315 25.925 30.4225 25.7853 30.644 25.7311C34.9618 25.2192 39.2388 24.4073 43.4439 23.3014C47.6482 22.0763 51.7656 20.5704 55.7683 18.794C56.7878 18.4328 57.9005 18.4328 58.92 18.794C59.6506 19.0532 60.3027 19.4951 60.8143 20.0775C61.3259 20.66 61.6797 21.3637 61.8425 22.1217Z" fill="url(#paint2_linear_107_381)"/>
<path d="M67.3888 33.9701C70.0239 33.9701 72.1601 31.8339 72.1601 29.1988C72.1601 26.5637 70.0239 24.4275 67.3888 24.4275C64.7536 24.4275 62.6174 26.5637 62.6174 29.1988C62.6174 31.8339 64.7536 33.9701 67.3888 33.9701Z" fill="#801283"/>
<defs>
<linearGradient id="paint0_linear_107_381" x1="52.3641" y1="0.238586" x2="50.6459" y2="96.9252" gradientUnits="userSpaceOnUse">
<stop stop-color="#61159D"/>
<stop offset="0.657344" stop-color="#9C106C"/>
</linearGradient>
<linearGradient id="paint1_linear_107_381" x1="49.2927" y1="39.8807" x2="48.2707" y2="81.9258" gradientUnits="userSpaceOnUse">
<stop stop-color="#61159D"/>
<stop offset="0.657344" stop-color="#9C106C"/>
</linearGradient>
<linearGradient id="paint2_linear_107_381" x1="47.9382" y1="18.5231" x2="47.1832" y2="56.9914" gradientUnits="userSpaceOnUse">
<stop stop-color="#61159D"/>
<stop offset="0.657344" stop-color="#9C106C"/>
</linearGradient>
</defs>
</svg>
