<svg width="1001" height="1001" viewBox="0 0 1001 1001" fill="none" xmlns="http://www.w3.org/2000/svg">
<circle cx="500.09" cy="500.432" r="500" fill="#0C0B15"/>
<path d="M352.927 779.436C397.52 670.526 426.617 616.787 487.763 523.422L650.206 420.833L602.419 490.1C493.398 658.149 481.094 702.409 431.921 823.482C429.209 829.964 428.72 831.753 420.243 827.984L355.724 792.756C350.06 790.003 350.262 785.212 352.927 779.436Z" fill="url(#paint0_linear_1457_5322)"/>
<path d="M634.075 248.071C635.728 255.396 635.645 263.005 633.831 270.292C632.017 277.578 628.522 284.34 623.628 290.035L547.224 384.765L587.046 362.526C635.149 343.798 685.603 399.239 633.139 440.526C631.77 441.603 630.332 442.67 628.822 443.726L383.862 582.336C333.524 603.802 300.432 550.771 324.664 513.291L453.109 352.997C414.699 362.438 391.337 365.999 352.154 371.392C349.888 371.866 347.525 371.454 345.551 370.244C343.577 369.034 342.141 367.117 341.535 364.883L324.407 293.288C323.891 291.131 324.249 288.857 325.404 286.964C326.56 285.07 328.418 283.711 330.573 283.184C372.577 278.204 414.184 270.306 455.092 259.547C495.992 247.629 536.047 232.98 574.986 215.699C584.903 212.186 595.727 212.186 605.645 215.699C612.753 218.22 619.096 222.519 624.073 228.185C629.05 233.852 632.492 240.697 634.075 248.071Z" fill="url(#paint1_linear_1457_5322)"/>
<path d="M688.03 363.334C713.665 363.334 734.446 342.553 734.446 316.918C734.446 291.283 713.665 270.502 688.03 270.502C662.395 270.502 641.614 291.283 641.614 316.918C641.614 342.553 662.395 363.334 688.03 363.334Z" fill="#D13216"/>
<defs>
<linearGradient id="paint0_linear_1457_5322" x1="511.99" y1="420.833" x2="502.048" y2="829.853" gradientUnits="userSpaceOnUse">
<stop stop-color="#BB1A11"/>
<stop offset="1" stop-color="#FF6420"/>
</linearGradient>
<linearGradient id="paint1_linear_1457_5322" x1="498.813" y1="213.064" x2="491.469" y2="587.289" gradientUnits="userSpaceOnUse">
<stop stop-color="#BB1A11"/>
<stop offset="1" stop-color="#FF6420"/>
</linearGradient>
</defs>
</svg>
