<svg width="1185" height="1111" viewBox="0 0 1185 1111" fill="none" xmlns="http://www.w3.org/2000/svg">
<circle cx="567.09" cy="534.432" r="500" fill="#0C0B15"/>
<path d="M419.927 813.436C464.52 704.526 493.617 650.787 554.763 557.422L717.206 454.833L669.419 524.1C560.398 692.149 548.094 736.409 498.921 857.482C496.209 863.964 495.72 865.753 487.243 861.984L422.724 826.756C417.06 824.003 417.262 819.212 419.927 813.436Z" fill="url(#paint0_linear_1457_5301)"/>
<path d="M701.075 282.071C702.728 289.396 702.645 297.005 700.831 304.292C699.017 311.578 695.522 318.34 690.628 324.035L614.224 418.765L654.046 396.526C702.149 377.798 752.603 433.239 700.139 474.526C698.77 475.603 697.332 476.67 695.822 477.726L450.862 616.336C400.524 637.802 367.432 584.771 391.664 547.291L520.109 386.997C481.699 396.438 458.337 399.999 419.154 405.392C416.888 405.866 414.525 405.454 412.551 404.244C410.577 403.034 409.141 401.117 408.535 398.883L391.407 327.288C390.891 325.131 391.249 322.857 392.404 320.964C393.56 319.07 395.418 317.711 397.573 317.184C439.577 312.204 481.184 304.306 522.092 293.547C562.992 281.629 603.047 266.98 641.986 249.699C651.903 246.186 662.727 246.186 672.645 249.699C679.753 252.22 686.096 256.519 691.073 262.185C696.05 267.852 699.492 274.697 701.075 282.071Z" fill="url(#paint1_linear_1457_5301)"/>
<path d="M755.03 397.334C780.665 397.334 801.446 376.553 801.446 350.918C801.446 325.283 780.665 304.502 755.03 304.502C729.395 304.502 708.614 325.283 708.614 350.918C708.614 376.553 729.395 397.334 755.03 397.334Z" fill="#D13216"/>
<defs>
<linearGradient id="paint0_linear_1457_5301" x1="578.99" y1="454.833" x2="569.048" y2="863.853" gradientUnits="userSpaceOnUse">
<stop stop-color="#BB1A11"/>
<stop offset="1" stop-color="#FF6420"/>
</linearGradient>
<linearGradient id="paint1_linear_1457_5301" x1="565.813" y1="247.064" x2="558.469" y2="621.289" gradientUnits="userSpaceOnUse">
<stop stop-color="#BB1A11"/>
<stop offset="1" stop-color="#FF6420"/>
</linearGradient>
</defs>
</svg>
